# xmcd
#
# Track frame offsets: 
#        150
#        11431
#        24325
#        38617
#        49838
#        60504
#        77892
#        104770
#        108472
#        151478
#        159837
#        187690
#        191566
#        203427
#        230221
#        247442
#        274283
#        312833
#        316649
#        334950
#
# Disc length: 4777 seconds
#
# Revision: 2
# Processed by: cddbd v1.5.2PL0 Copyright (c) Steve Scherf et al.
# Submitted via: ExactAudioCopy v1.3
#
DISCID=0a12a714
DTITLE=Johannsen (Konst), Eriksmoen (Blonde), Schmitt (Belm), J.Prégar
DTITLE=dien (Pedr), Ivashchenko (Osmin) - Jacobs, Akademie Alte Musik /
DTITLE=2014 - Entführung - Jacobs - CD2
DYEAR=2014
DGENRE=Opera
TTITLE0=AKT2 (Forts.) - Hm... Kein Bassa, keine Konstanze mehr da
TTITLE1=Welche Wonne, welche Lust
TTITLE2=Frisch zum Kampfe
TTITLE3=Ha! Geht's hier so lustig zu?
TTITLE4=Vivat Bacchus! Bacchus lebe!
TTITLE5=Glaub' mir Osmin
TTITLE6=Wenn der Freude Tränen fließen
TTITLE7=Höre, liebste Konstanze
TTITLE8=Ach Belmonte! ach, mein Leben!
TTITLE9=AKT3 - Ich wohl der Kaiser sein
TTITLE10=Ich baue ganz auf deine Stärke
TTITLE11=Alles liegt im Schlaf, Herr
TTITLE12=Im Mohrenland gefangen war
TTITLE13=Herr, kommt schnell!
TTITLE14=O, wie will ich triumphieren
TTITLE15=O, wie will ich triumphieren, den Pedrillo strangulieren!
TTITLE16=Welch ein Geschick! O Qual der Seele
TTITLE17=So, Ihr bekommt Besuch
TTITLE18=Nun, Belmont, du elender Sklave!
TTITLE19=Nie werd' ich deine Huld verkennen
EXTD=
EXTT0=
EXTT1=
EXTT2=
EXTT3=
EXTT4=
EXTT5=
EXTT6=
EXTT7=
EXTT8=
EXTT9=
EXTT10=
EXTT11=
EXTT12=
EXTT13=
EXTT14=
EXTT15=
EXTT16=
EXTT17=
EXTT18=
EXTT19=
PLAYORDER=
